<svg width="135" height="44" viewBox="0 0 135 44" fill="none" xmlns="http://www.w3.org/2000/svg">
<path d="M13.875 30.0469C13.875 29.6406 13.8125 29.276 13.6875 28.9531C13.5729 28.6198 13.3542 28.3177 13.0312 28.0469C12.7083 27.7656 12.2552 27.4896 11.6719 27.2188C11.0885 26.9479 10.3333 26.6667 9.40625 26.375C8.375 26.0417 7.39583 25.6667 6.46875 25.25C5.55208 24.8333 4.73958 24.349 4.03125 23.7969C3.33333 23.2344 2.78125 22.5833 2.375 21.8438C1.97917 21.1042 1.78125 20.2448 1.78125 19.2656C1.78125 18.3177 1.98958 17.4583 2.40625 16.6875C2.82292 15.9062 3.40625 15.2396 4.15625 14.6875C4.90625 14.125 5.79167 13.6927 6.8125 13.3906C7.84375 13.0885 8.97396 12.9375 10.2031 12.9375C11.8802 12.9375 13.3438 13.2396 14.5938 13.8438C15.8438 14.4479 16.8125 15.276 17.5 16.3281C18.1979 17.3802 18.5469 18.5833 18.5469 19.9375H13.8906C13.8906 19.2708 13.75 18.6875 13.4688 18.1875C13.1979 17.6771 12.7812 17.276 12.2188 16.9844C11.6667 16.6927 10.9688 16.5469 10.125 16.5469C9.3125 16.5469 8.63542 16.6719 8.09375 16.9219C7.55208 17.1615 7.14583 17.4896 6.875 17.9062C6.60417 18.3125 6.46875 18.7708 6.46875 19.2812C6.46875 19.6667 6.5625 20.0156 6.75 20.3281C6.94792 20.6406 7.23958 20.9323 7.625 21.2031C8.01042 21.474 8.48438 21.7292 9.04688 21.9688C9.60938 22.2083 10.2604 22.4427 11 22.6719C12.2396 23.0469 13.3281 23.4688 14.2656 23.9375C15.2135 24.4062 16.0052 24.9323 16.6406 25.5156C17.276 26.099 17.7552 26.7604 18.0781 27.5C18.401 28.2396 18.5625 29.0781 18.5625 30.0156C18.5625 31.0052 18.3698 31.8906 17.9844 32.6719C17.599 33.4531 17.0417 34.1146 16.3125 34.6562C15.5833 35.1979 14.7135 35.6094 13.7031 35.8906C12.6927 36.1719 11.5625 36.3125 10.3125 36.3125C9.1875 36.3125 8.07812 36.1667 6.98438 35.875C5.89062 35.5729 4.89583 35.1198 4 34.5156C3.11458 33.9115 2.40625 33.1406 1.875 32.2031C1.34375 31.2656 1.07812 30.1562 1.07812 28.875H5.78125C5.78125 29.5833 5.89062 30.1823 6.10938 30.6719C6.32812 31.1615 6.63542 31.5573 7.03125 31.8594C7.4375 32.1615 7.91667 32.3802 8.46875 32.5156C9.03125 32.651 9.64583 32.7188 10.3125 32.7188C11.125 32.7188 11.7917 32.6042 12.3125 32.375C12.8438 32.1458 13.2344 31.8281 13.4844 31.4219C13.7448 31.0156 13.875 30.5573 13.875 30.0469ZM29.25 36.3125C27.9375 36.3125 26.7604 36.1042 25.7188 35.6875C24.6771 35.2604 23.7917 34.6719 23.0625 33.9219C22.3438 33.1719 21.7917 32.3021 21.4062 31.3125C21.0208 30.3125 20.8281 29.25 20.8281 28.125V27.5C20.8281 26.2188 21.0104 25.0469 21.375 23.9844C21.7396 22.9219 22.2604 22 22.9375 21.2188C23.625 20.4375 24.4583 19.8385 25.4375 19.4219C26.4167 18.9948 27.5208 18.7812 28.75 18.7812C29.9479 18.7812 31.0104 18.9792 31.9375 19.375C32.8646 19.7708 33.6406 20.3333 34.2656 21.0625C34.901 21.7917 35.3802 22.6667 35.7031 23.6875C36.026 24.6979 36.1875 25.8229 36.1875 27.0625V28.9375H22.75V25.9375H31.7656V25.5938C31.7656 24.9688 31.651 24.4115 31.4219 23.9219C31.2031 23.4219 30.8698 23.026 30.4219 22.7344C29.974 22.4427 29.401 22.2969 28.7031 22.2969C28.1094 22.2969 27.599 22.4271 27.1719 22.6875C26.7448 22.9479 26.3958 23.3125 26.125 23.7812C25.8646 24.25 25.6667 24.8021 25.5312 25.4375C25.4062 26.0625 25.3438 26.75 25.3438 27.5V28.125C25.3438 28.8021 25.4375 29.4271 25.625 30C25.8229 30.5729 26.099 31.0677 26.4531 31.4844C26.8177 31.901 27.2552 32.224 27.7656 32.4531C28.2865 32.6823 28.875 32.7969 29.5312 32.7969C30.3438 32.7969 31.099 32.6406 31.7969 32.3281C32.5052 32.0052 33.1146 31.5208 33.625 30.875L35.8125 33.25C35.4583 33.7604 34.974 34.25 34.3594 34.7188C33.7552 35.1875 33.026 35.5729 32.1719 35.875C31.3177 36.1667 30.3438 36.3125 29.25 36.3125ZM47.875 32.1875V24.6562C47.875 24.1146 47.7865 23.651 47.6094 23.2656C47.4323 22.8698 47.1562 22.5625 46.7812 22.3438C46.4167 22.125 45.9427 22.0156 45.3594 22.0156C44.8594 22.0156 44.4271 22.1042 44.0625 22.2812C43.6979 22.4479 43.4167 22.6927 43.2188 23.0156C43.0208 23.3281 42.9219 23.6979 42.9219 24.125H38.4219C38.4219 23.4062 38.5885 22.724 38.9219 22.0781C39.2552 21.4323 39.7396 20.8646 40.375 20.375C41.0104 19.875 41.7656 19.4844 42.6406 19.2031C43.526 18.9219 44.5156 18.7812 45.6094 18.7812C46.9219 18.7812 48.0885 19 49.1094 19.4375C50.1302 19.875 50.9323 20.5312 51.5156 21.4062C52.1094 22.2812 52.4062 23.375 52.4062 24.6875V31.9219C52.4062 32.849 52.4635 33.6094 52.5781 34.2031C52.6927 34.7865 52.8594 35.2969 53.0781 35.7344V36H48.5312C48.3125 35.5417 48.1458 34.9688 48.0312 34.2812C47.9271 33.5833 47.875 32.8854 47.875 32.1875ZM48.4688 25.7031L48.5 28.25H45.9844C45.3906 28.25 44.875 28.3177 44.4375 28.4531C44 28.5885 43.6406 28.7812 43.3594 29.0312C43.0781 29.2708 42.8698 29.5521 42.7344 29.875C42.6094 30.1979 42.5469 30.5521 42.5469 30.9375C42.5469 31.3229 42.6354 31.6719 42.8125 31.9844C42.9896 32.2865 43.2448 32.526 43.5781 32.7031C43.9115 32.8698 44.3021 32.9531 44.75 32.9531C45.4271 32.9531 46.0156 32.8177 46.5156 32.5469C47.0156 32.276 47.401 31.9427 47.6719 31.5469C47.9531 31.151 48.099 30.776 48.1094 30.4219L49.2969 32.3281C49.1302 32.7552 48.901 33.1979 48.6094 33.6562C48.3281 34.1146 47.9688 34.5469 47.5312 34.9531C47.0938 35.349 46.5677 35.6771 45.9531 35.9375C45.3385 36.1875 44.6094 36.3125 43.7656 36.3125C42.6927 36.3125 41.7188 36.099 40.8438 35.6719C39.9792 35.2344 39.2917 34.6354 38.7812 33.875C38.2812 33.1042 38.0312 32.2292 38.0312 31.25C38.0312 30.3646 38.1979 29.5781 38.5312 28.8906C38.8646 28.2031 39.3542 27.625 40 27.1562C40.6562 26.6771 41.474 26.3177 42.4531 26.0781C43.4323 25.8281 44.5677 25.7031 45.8594 25.7031H48.4688Z" fill="white"/>
<path d="M59.6875 26.0859V36H56.3125V23.3203H59.4883L59.6875 26.0859ZM63.5078 23.2383L63.4492 26.3672C63.2852 26.3438 63.0859 26.3242 62.8516 26.3086C62.625 26.2852 62.418 26.2734 62.2305 26.2734C61.7539 26.2734 61.3398 26.3359 60.9883 26.4609C60.6445 26.5781 60.3555 26.7539 60.1211 26.9883C59.8945 27.2227 59.7227 27.5078 59.6055 27.8438C59.4961 28.1797 59.4336 28.5625 59.418 28.9922L58.7383 28.7812C58.7383 27.9609 58.8203 27.207 58.9844 26.5195C59.1484 25.8242 59.3867 25.2188 59.6992 24.7031C60.0195 24.1875 60.4102 23.7891 60.8711 23.5078C61.332 23.2266 61.8594 23.0859 62.4531 23.0859C62.6406 23.0859 62.832 23.1016 63.0273 23.1328C63.2227 23.1562 63.3828 23.1914 63.5078 23.2383ZM70.1055 33.5977C70.5195 33.5977 70.8867 33.5195 71.207 33.3633C71.5273 33.1992 71.7773 32.9727 71.957 32.6836C72.1445 32.3867 72.2422 32.0391 72.25 31.6406H75.4258C75.418 32.5312 75.1797 33.3242 74.7109 34.0195C74.2422 34.707 73.6133 35.25 72.8242 35.6484C72.0352 36.0391 71.1523 36.2344 70.1758 36.2344C69.1914 36.2344 68.332 36.0703 67.5977 35.7422C66.8711 35.4141 66.2656 34.9609 65.7812 34.3828C65.2969 33.7969 64.9336 33.1172 64.6914 32.3438C64.4492 31.5625 64.3281 30.7266 64.3281 29.8359V29.4961C64.3281 28.5977 64.4492 27.7617 64.6914 26.9883C64.9336 26.207 65.2969 25.5273 65.7812 24.9492C66.2656 24.3633 66.8711 23.9062 67.5977 23.5781C68.3242 23.25 69.1758 23.0859 70.1523 23.0859C71.1914 23.0859 72.1016 23.2852 72.8828 23.6836C73.6719 24.082 74.2891 24.6523 74.7344 25.3945C75.1875 26.1289 75.418 27 75.4258 28.0078H72.25C72.2422 27.5859 72.1523 27.2031 71.9805 26.8594C71.8164 26.5156 71.5742 26.2422 71.2539 26.0391C70.9414 25.8281 70.5547 25.7227 70.0938 25.7227C69.6016 25.7227 69.1992 25.8281 68.8867 26.0391C68.5742 26.2422 68.332 26.5234 68.1602 26.8828C67.9883 27.2344 67.8672 27.6367 67.7969 28.0898C67.7344 28.5352 67.7031 29.0039 67.7031 29.4961V29.8359C67.7031 30.3281 67.7344 30.8008 67.7969 31.2539C67.8594 31.707 67.9766 32.1094 68.1484 32.4609C68.3281 32.8125 68.5742 33.0898 68.8867 33.293C69.1992 33.4961 69.6055 33.5977 70.1055 33.5977ZM80.6758 18V36H77.3008V18H80.6758ZM80.1953 29.2148H79.2695C79.2773 28.332 79.3945 27.5195 79.6211 26.7773C79.8477 26.0273 80.1719 25.3789 80.5938 24.832C81.0156 24.2773 81.5195 23.8477 82.1055 23.543C82.6992 23.2383 83.3555 23.0859 84.0742 23.0859C84.6992 23.0859 85.2656 23.1758 85.7734 23.3555C86.2891 23.5273 86.7305 23.8086 87.0977 24.1992C87.4727 24.582 87.7617 25.0859 87.9648 25.7109C88.168 26.3359 88.2695 27.0938 88.2695 27.9844V36H84.8711V27.9609C84.8711 27.3984 84.7891 26.957 84.625 26.6367C84.4688 26.3086 84.2383 26.0781 83.9336 25.9453C83.6367 25.8047 83.2695 25.7344 82.832 25.7344C82.3477 25.7344 81.9336 25.8242 81.5898 26.0039C81.2539 26.1836 80.9844 26.4336 80.7812 26.7539C80.5781 27.0664 80.4297 27.4336 80.3359 27.8555C80.2422 28.2773 80.1953 28.7305 80.1953 29.2148ZM96.6719 36.2344C95.6875 36.2344 94.8047 36.0781 94.0234 35.7656C93.2422 35.4453 92.5781 35.0039 92.0312 34.4414C91.4922 33.8789 91.0781 33.2266 90.7891 32.4844C90.5 31.7344 90.3555 30.9375 90.3555 30.0938V29.625C90.3555 28.6641 90.4922 27.7852 90.7656 26.9883C91.0391 26.1914 91.4297 25.5 91.9375 24.9141C92.4531 24.3281 93.0781 23.8789 93.8125 23.5664C94.5469 23.2461 95.375 23.0859 96.2969 23.0859C97.1953 23.0859 97.9922 23.2344 98.6875 23.5312C99.3828 23.8281 99.9648 24.25 100.434 24.7969C100.91 25.3438 101.27 26 101.512 26.7656C101.754 27.5234 101.875 28.3672 101.875 29.2969V30.7031H91.7969V28.4531H98.5586V28.1953C98.5586 27.7266 98.4727 27.3086 98.3008 26.9414C98.1367 26.5664 97.8867 26.2695 97.5508 26.0508C97.2148 25.832 96.7852 25.7227 96.2617 25.7227C95.8164 25.7227 95.4336 25.8203 95.1133 26.0156C94.793 26.2109 94.5312 26.4844 94.3281 26.8359C94.1328 27.1875 93.9844 27.6016 93.8828 28.0781C93.7891 28.5469 93.7422 29.0625 93.7422 29.625V30.0938C93.7422 30.6016 93.8125 31.0703 93.9531 31.5C94.1016 31.9297 94.3086 32.3008 94.5742 32.6133C94.8477 32.9258 95.1758 33.168 95.5586 33.3398C95.9492 33.5117 96.3906 33.5977 96.8828 33.5977C97.4922 33.5977 98.0586 33.4805 98.582 33.2461C99.1133 33.0039 99.5703 32.6406 99.9531 32.1562L101.594 33.9375C101.328 34.3203 100.965 34.6875 100.504 35.0391C100.051 35.3906 99.5039 35.6797 98.8633 35.9062C98.2227 36.125 97.4922 36.2344 96.6719 36.2344ZM107.172 26.0859V36H103.797V23.3203H106.973L107.172 26.0859ZM110.992 23.2383L110.934 26.3672C110.77 26.3438 110.57 26.3242 110.336 26.3086C110.109 26.2852 109.902 26.2734 109.715 26.2734C109.238 26.2734 108.824 26.3359 108.473 26.4609C108.129 26.5781 107.84 26.7539 107.605 26.9883C107.379 27.2227 107.207 27.5078 107.09 27.8438C106.98 28.1797 106.918 28.5625 106.902 28.9922L106.223 28.7812C106.223 27.9609 106.305 27.207 106.469 26.5195C106.633 25.8242 106.871 25.2188 107.184 24.7031C107.504 24.1875 107.895 23.7891 108.355 23.5078C108.816 23.2266 109.344 23.0859 109.938 23.0859C110.125 23.0859 110.316 23.1016 110.512 23.1328C110.707 23.1562 110.867 23.1914 110.992 23.2383Z" fill="white"/>
<path d="M123.5 0L126.606 8.39396L135 11.5L126.606 14.606L123.5 23L120.394 14.606L112 11.5L120.394 8.39396L123.5 0Z" fill="#FF9900"/>
</svg>
