<svg width="13" height="23" viewBox="0 0 13 23" fill="none" xmlns="http://www.w3.org/2000/svg">
<path fill-rule="evenodd" clip-rule="evenodd" d="M6.31538 0.0583852C6.27381 0.0908738 4.83587 2.64813 3.11991 5.74115C0.885483 9.76875 0 11.4033 0 11.5004C0 11.7094 1.76115 14.8616 1.91069 14.9202C2.11595 15.0006 2.3557 14.8341 2.3557 14.6111C2.3557 14.5643 2.02338 13.9257 1.61719 13.192L0.878721 11.8581L2.15032 11.87L3.42192 11.882L4.47758 16.0384C5.05818 18.3244 5.52884 20.1994 5.52347 20.2049C5.51811 20.2104 4.96146 19.2197 4.28647 18.0032C3.61147 16.7867 3.03441 15.7661 3.00409 15.7352C2.91841 15.6478 2.67263 15.6671 2.57383 15.7689C2.52584 15.8183 2.48658 15.917 2.48658 15.9882C2.48658 16.1296 6.17858 22.8346 6.31543 22.9417C6.41179 23.017 6.5934 23.0198 6.6861 22.9474C6.79856 22.8595 11.1677 14.9502 11.1677 14.8345C11.1678 14.696 10.9806 14.5107 10.8406 14.5107C10.7784 14.5107 10.6843 14.5562 10.6313 14.6118C10.5784 14.6674 9.84916 15.9509 9.01079 17.464C8.17242 18.9771 7.48202 20.2105 7.47653 20.2049C7.47107 20.1993 7.94143 18.3243 8.52172 16.0383L9.57686 11.882L10.8501 11.87L12.1233 11.8581L11.7147 12.5922C11.4899 12.9959 11.3021 13.3551 11.2972 13.3905C11.2777 13.5318 11.303 13.6127 11.3942 13.7001C11.5113 13.8125 11.696 13.8183 11.8118 13.7131C11.9676 13.5714 13 11.6489 13 11.5003C13 11.4047 12.6679 10.7647 11.8861 9.35377C11.2735 8.24808 10.7315 7.30807 10.6816 7.26479C10.6318 7.22152 10.5432 7.18616 10.4848 7.18616C10.3506 7.18616 10.1644 7.37435 10.1645 7.50992C10.1646 7.56663 10.6063 8.40922 11.1461 9.38235C11.6859 10.3554 12.1275 11.1592 12.1275 11.1685C12.1275 11.1779 11.559 11.1854 10.8642 11.1854H9.60081L9.55334 11.0169C9.44206 10.6221 7.46741 2.8045 7.47653 2.79507C7.48211 2.78936 7.93523 3.59407 8.4835 4.58329C9.03182 5.57251 9.51526 6.40104 9.55779 6.42454C9.77631 6.54497 10.0336 6.39776 10.0336 6.15227C10.0336 6.05687 9.55182 5.14818 8.39565 3.06293C7.49481 1.43814 6.72545 0.0834594 6.68597 0.0525884C6.5934 -0.0198482 6.41175 -0.0170172 6.31538 0.0583852ZM7.71105 6.43348C8.36489 9.01001 8.89977 11.1332 8.89959 11.1517C8.89924 11.1958 4.1008 11.1958 4.10019 11.1517C4.0991 11.0754 6.47924 1.74892 6.49983 1.74892C6.51213 1.74892 7.05717 3.85695 7.71105 6.43348ZM4.51689 6.80425C3.95798 9.00381 3.47789 10.8894 3.45002 10.9945L3.39933 11.1854H2.13226C1.43537 11.1854 0.871742 11.1681 0.879768 11.1468C0.910175 11.0659 5.51409 2.78545 5.52334 2.79498C5.52871 2.80046 5.0758 4.60464 4.51689 6.80425ZM8.89161 11.9219C8.77147 12.4538 6.5161 21.2511 6.49987 21.2511C6.48744 21.2511 5.95208 19.1835 5.31024 16.6564C4.6684 14.1293 4.13138 12.0162 4.11686 11.9606L4.09051 11.8595H6.49812C8.53075 11.8595 8.90352 11.8692 8.89161 11.9219Z" fill="#C5C5C5"/>
</svg>
