<svg width="17" height="17" viewBox="0 0 17 17" fill="none" xmlns="http://www.w3.org/2000/svg">
<path d="M13.0028 4.50122H3.00057C2.17196 4.50122 1.50024 5.17294 1.50024 6.00155V12.0029C1.50024 12.8315 2.17196 13.5032 3.00057 13.5032H13.0028C13.8314 13.5032 14.5031 12.8315 14.5031 12.0029V6.00155C14.5031 5.17294 13.8314 4.50122 13.0028 4.50122Z" stroke="white" stroke-opacity="0.55" stroke-width="1.00189" stroke-linejoin="round"/>
<path d="M12.8577 4.50126V3.56356C12.8576 3.33357 12.8068 3.10644 12.7088 2.89836C12.6109 2.69028 12.4682 2.50639 12.291 2.3598C12.1138 2.21322 11.9064 2.10755 11.6836 2.05034C11.4609 1.99313 11.2282 1.9858 11.0023 2.02885L2.77052 3.43384C2.41304 3.50197 2.09055 3.6927 1.85865 3.97316C1.62675 4.25361 1.5 4.6062 1.50024 4.97011V6.5017" stroke="white" stroke-opacity="0.55" stroke-width="1.00189" stroke-linejoin="round"/>
<path d="M11.5025 10.0029C11.3046 10.0029 11.111 9.94418 10.9464 9.83419C10.7818 9.72421 10.6535 9.56788 10.5778 9.38498C10.502 9.20208 10.4822 9.00082 10.5208 8.80665C10.5594 8.61249 10.6548 8.43414 10.7948 8.29415C10.9347 8.15416 11.1131 8.05883 11.3073 8.02021C11.5014 7.98159 11.7027 8.00141 11.8856 8.07717C12.0685 8.15293 12.2248 8.28122 12.3348 8.44583C12.4448 8.61044 12.5035 8.80396 12.5035 9.00193C12.5035 9.2674 12.398 9.522 12.2103 9.70971C12.0226 9.89743 11.768 10.0029 11.5025 10.0029Z" fill="white" fill-opacity="0.55"/>
</svg>
